<svg width="37" height="36" viewBox="0 0 37 36" fill="none" xmlns="http://www.w3.org/2000/svg">
<path fill-rule="evenodd" clip-rule="evenodd" d="M15.0051 0.798826C28.8471 -1.63117 32.8351 1.04282 35.2951 14.9588C37.7581 28.8718 35.2531 32.6888 21.0891 35.1778C6.92411 37.6648 3.26211 34.9378 0.799107 21.0198C-1.66489 7.09983 1.16411 3.23183 15.0051 0.798826ZM16.6001 6.94683C13.9501 7.41283 12.0341 8.62482 10.9321 10.3868C10.0671 11.7708 9.79111 13.3918 10.0411 14.7048C10.5931 17.5998 12.9911 19.4218 17.8501 19.7898L18.2301 19.8168L18.6071 19.8468L18.9651 19.8808C20.6591 20.0498 21.7431 20.3368 22.3411 20.7058C22.7411 20.9508 22.9011 21.2188 23.0151 21.8678C23.2331 23.0998 22.2701 24.2158 19.7351 24.6608C18.0581 24.9558 16.2681 24.6008 14.3121 23.5378C13.819 23.2702 13.24 23.2087 12.7017 23.3666C12.1634 23.5246 11.7094 23.8892 11.4391 24.3808C11.3058 24.6241 11.2219 24.8913 11.1922 25.1671C11.1626 25.4429 11.1878 25.7219 11.2664 25.9879C11.3451 26.2539 11.4756 26.5018 11.6504 26.7171C11.8252 26.9325 12.0409 27.1112 12.2851 27.2428C15.0451 28.7428 17.7941 29.2868 20.4711 28.8168C25.1441 27.9958 27.8461 24.8678 27.1861 21.1348C26.5581 17.5908 24.0501 16.0088 18.5151 15.6068L18.1501 15.5808C16.3681 15.4448 15.2521 15.0998 14.6631 14.6608C14.3721 14.4428 14.2641 14.2508 14.2001 13.9188C14.1451 13.6228 14.2371 13.0798 14.5251 12.6188C14.9681 11.9128 15.8301 11.3668 17.3361 11.1028C18.6711 10.8678 19.9611 11.0928 21.2831 11.8088C21.5888 11.9741 21.9303 12.0618 22.2778 12.0641C22.6253 12.0664 22.968 11.9834 23.2758 11.8222C23.5837 11.661 23.8472 11.4267 24.0432 11.1398C24.2393 10.8529 24.3618 10.5222 24.4001 10.1768C24.4445 9.76141 24.3641 9.34219 24.1693 8.97262C23.9744 8.60306 23.6739 8.29991 23.3061 8.10183C21.1571 6.93783 18.8961 6.54283 16.6001 6.94683Z" fill="#27272a"/>
</svg>
