<svg width="220" height="40" viewBox="0 0 220 40" fill="none" xmlns="http://www.w3.org/2000/svg">
<g clip-path="url(#clip0_266_17)">
<path d="M19.9994 40C31.0454 40 39.9994 31.046 39.9994 20V6C39.9994 4.4087 39.3673 2.88258 38.2421 1.75736C37.1169 0.632141 35.5907 0 33.9994 0L20.9994 0V8.774C20.9994 10.776 21.1214 12.85 22.1714 14.554C22.9231 15.7752 23.9287 16.8204 25.1199 17.6188C26.3112 18.4171 27.6602 18.9499 29.0754 19.181L29.4584 19.243C29.6163 19.297 29.7534 19.399 29.8505 19.5347C29.9475 19.6704 29.9997 19.8331 29.9997 20C29.9997 20.1669 29.9475 20.3296 29.8505 20.4653C29.7534 20.601 29.6163 20.703 29.4584 20.757L29.0754 20.819C27.0076 21.1568 25.0981 22.1356 23.6166 23.6171C22.135 25.0987 21.1562 27.0082 20.8184 29.076L20.7564 29.459C20.7025 29.6169 20.6005 29.754 20.4647 29.851C20.329 29.9481 20.1663 30.0003 19.9994 30.0003C19.8326 30.0003 19.6699 29.9481 19.5341 29.851C19.3984 29.754 19.2964 29.6169 19.2424 29.459L19.1804 29.076C18.9493 27.6607 18.4165 26.3118 17.6182 25.1205C16.8198 23.9293 15.7746 22.9237 14.5534 22.172C12.8494 21.122 10.7754 21 8.77344 21H0.0234375C0.546438 31.581 9.28944 40 19.9994 40Z" fill="#0E1534"/>
<path d="M0 19H8.774C10.776 19 12.85 18.878 14.554 17.828C15.886 17.0073 17.0073 15.886 17.828 14.554C18.878 12.85 19 10.776 19 8.774V0H6C4.4087 0 2.88258 0.632141 1.75736 1.75736C0.632141 2.88258 0 4.4087 0 6L0 19Z" fill="#0E1534"/>
<path d="M65.62 32C64.012 29.144 62.272 26.324 60.4 23.54C58.528 20.756 56.536 18.128 54.424 15.656V32H48.88V7.052H53.452C54.244 7.844 55.12 8.816 56.08 9.968C57.04 11.12 58.012 12.356 58.996 13.676C60.004 14.972 61 16.328 61.984 17.744C62.968 19.136 63.892 20.48 64.756 21.776V7.052H70.336V32H65.62ZM74.8309 22.676C74.8309 20.996 75.0829 19.532 75.5869 18.284C76.1149 17.012 76.7989 15.956 77.6389 15.116C78.4789 14.276 79.4389 13.64 80.5189 13.208C81.6229 12.776 82.7509 12.56 83.9029 12.56C86.5909 12.56 88.7149 13.388 90.2749 15.044C91.8349 16.676 92.6149 19.088 92.6149 22.28C92.6149 22.592 92.6029 22.94 92.5789 23.324C92.5549 23.684 92.5309 24.008 92.5069 24.296H80.3389C80.4589 25.4 80.9749 26.276 81.8869 26.924C82.7989 27.572 84.0229 27.896 85.5589 27.896C86.5429 27.896 87.5029 27.812 88.4389 27.644C89.3989 27.452 90.1789 27.224 90.7789 26.96L91.4989 31.316C91.2109 31.46 90.8269 31.604 90.3469 31.748C89.8669 31.892 89.3269 32.012 88.7269 32.108C88.1509 32.228 87.5269 32.324 86.8549 32.396C86.1829 32.468 85.5109 32.504 84.8389 32.504C83.1349 32.504 81.6469 32.252 80.3749 31.748C79.1269 31.244 78.0829 30.56 77.2429 29.696C76.4269 28.808 75.8149 27.764 75.4069 26.564C75.0229 25.364 74.8309 24.068 74.8309 22.676ZM87.4309 20.624C87.4069 20.168 87.3229 19.724 87.1789 19.292C87.0589 18.86 86.8549 18.476 86.5669 18.14C86.3029 17.804 85.9549 17.528 85.5229 17.312C85.1149 17.096 84.5989 16.988 83.9749 16.988C83.3749 16.988 82.8589 17.096 82.4269 17.312C81.9949 17.504 81.6349 17.768 81.3469 18.104C81.0589 18.44 80.8309 18.836 80.6629 19.292C80.5189 19.724 80.4109 20.168 80.3389 20.624H87.4309ZM96.5744 8.348L101.938 7.484V13.064H108.382V17.528H101.938V24.188C101.938 25.316 102.13 26.216 102.514 26.888C102.922 27.56 103.726 27.896 104.926 27.896C105.502 27.896 106.09 27.848 106.69 27.752C107.314 27.632 107.878 27.476 108.382 27.284L109.138 31.46C108.49 31.724 107.77 31.952 106.978 32.144C106.186 32.336 105.214 32.432 104.062 32.432C102.598 32.432 101.386 32.24 100.426 31.856C99.4664 31.448 98.6984 30.896 98.1224 30.2C97.5464 29.48 97.1384 28.616 96.8984 27.608C96.6824 26.6 96.5744 25.484 96.5744 24.26V8.348ZM129.814 32C129.55 31.136 129.25 30.248 128.914 29.336C128.602 28.424 128.29 27.512 127.978 26.6H118.258C117.946 27.512 117.622 28.424 117.286 29.336C116.974 30.248 116.686 31.136 116.422 32H110.59C111.526 29.312 112.414 26.828 113.254 24.548C114.094 22.268 114.91 20.12 115.702 18.104C116.518 16.088 117.31 14.18 118.078 12.38C118.87 10.556 119.686 8.78 120.526 7.052H125.89C126.706 8.78 127.51 10.556 128.302 12.38C129.094 14.18 129.886 16.088 130.678 18.104C131.494 20.12 132.322 22.268 133.162 24.548C134.002 26.828 134.89 29.312 135.826 32H129.814ZM123.082 12.704C122.962 13.064 122.782 13.556 122.542 14.18C122.302 14.804 122.026 15.524 121.714 16.34C121.402 17.156 121.054 18.056 120.67 19.04C120.31 20.024 119.938 21.056 119.554 22.136H126.646C126.262 21.056 125.89 20.024 125.53 19.04C125.17 18.056 124.822 17.156 124.486 16.34C124.174 15.524 123.898 14.804 123.658 14.18C123.418 13.556 123.226 13.064 123.082 12.704ZM150.108 17.816C149.628 17.696 149.064 17.576 148.416 17.456C147.768 17.312 147.072 17.24 146.328 17.24C145.992 17.24 145.584 17.276 145.104 17.348C144.648 17.396 144.3 17.456 144.06 17.528V32H138.696V14.072C139.656 13.736 140.784 13.424 142.08 13.136C143.4 12.824 144.864 12.668 146.472 12.668C146.76 12.668 147.108 12.692 147.516 12.74C147.924 12.764 148.332 12.812 148.74 12.884C149.148 12.932 149.556 13.004 149.964 13.1C150.372 13.172 150.72 13.268 151.008 13.388L150.108 17.816ZM164.287 21.956C164.287 20.228 164.059 19.004 163.603 18.284C163.171 17.564 162.415 17.204 161.335 17.204C160.999 17.204 160.651 17.228 160.291 17.276C159.931 17.3 159.583 17.336 159.247 17.384V32H153.883V13.712C154.339 13.592 154.867 13.472 155.467 13.352C156.091 13.208 156.739 13.088 157.411 12.992C158.107 12.872 158.815 12.788 159.535 12.74C160.255 12.668 160.963 12.632 161.659 12.632C163.027 12.632 164.131 12.812 164.971 13.172C165.835 13.508 166.543 13.916 167.095 14.396C167.863 13.844 168.739 13.412 169.723 13.1C170.731 12.788 171.655 12.632 172.495 12.632C174.007 12.632 175.243 12.848 176.203 13.28C177.187 13.688 177.967 14.276 178.543 15.044C179.119 15.812 179.515 16.724 179.731 17.78C179.947 18.836 180.055 20.012 180.055 21.308V32H174.691V21.956C174.691 20.228 174.463 19.004 174.007 18.284C173.575 17.564 172.819 17.204 171.739 17.204C171.451 17.204 171.043 17.276 170.515 17.42C170.011 17.564 169.591 17.744 169.255 17.96C169.423 18.512 169.531 19.1 169.579 19.724C169.627 20.324 169.651 20.972 169.651 21.668V32H164.287V21.956ZM202.638 22.496C202.638 23.984 202.422 25.352 201.99 26.6C201.558 27.824 200.934 28.88 200.118 29.768C199.302 30.632 198.318 31.304 197.166 31.784C196.038 32.264 194.766 32.504 193.35 32.504C191.958 32.504 190.686 32.264 189.534 31.784C188.406 31.304 187.434 30.632 186.618 29.768C185.802 28.88 185.166 27.824 184.71 26.6C184.254 25.352 184.026 23.984 184.026 22.496C184.026 21.008 184.254 19.652 184.71 18.428C185.19 17.204 185.838 16.16 186.654 15.296C187.494 14.432 188.478 13.76 189.606 13.28C190.758 12.8 192.006 12.56 193.35 12.56C194.718 12.56 195.966 12.8 197.094 13.28C198.246 13.76 199.23 14.432 200.046 15.296C200.862 16.16 201.498 17.204 201.954 18.428C202.41 19.652 202.638 21.008 202.638 22.496ZM197.166 22.496C197.166 20.84 196.83 19.544 196.158 18.608C195.51 17.648 194.574 17.168 193.35 17.168C192.126 17.168 191.178 17.648 190.506 18.608C189.834 19.544 189.498 20.84 189.498 22.496C189.498 24.152 189.834 25.472 190.506 26.456C191.178 27.416 192.126 27.896 193.35 27.896C194.574 27.896 195.51 27.416 196.158 26.456C196.83 25.472 197.166 24.152 197.166 22.496ZM218.205 17.816C217.725 17.696 217.161 17.576 216.513 17.456C215.865 17.312 215.169 17.24 214.425 17.24C214.089 17.24 213.681 17.276 213.201 17.348C212.745 17.396 212.397 17.456 212.157 17.528V32H206.793V14.072C207.753 13.736 208.881 13.424 210.177 13.136C211.497 12.824 212.961 12.668 214.569 12.668C214.857 12.668 215.205 12.692 215.613 12.74C216.021 12.764 216.429 12.812 216.837 12.884C217.245 12.932 217.653 13.004 218.061 13.1C218.469 13.172 218.817 13.268 219.105 13.388L218.205 17.816Z" fill="#0E1534"/>
</g>
<defs>
<clipPath id="clip0_266_17">
<rect width="220" height="40" fill="white"/>
</clipPath>
</defs>
</svg>
