<svg width="48" height="48" viewBox="0 0 48 48" fill="none" xmlns="http://www.w3.org/2000/svg">
<path d="M31.5 21L40.94 11.56C41.1498 11.3505 41.4169 11.2078 41.7077 11.1501C41.9985 11.0923 42.2999 11.122 42.5738 11.2354C42.8478 11.3488 43.0819 11.5409 43.2468 11.7873C43.4116 12.0338 43.4997 12.3235 43.5 12.62V35.38C43.4997 35.6765 43.4116 35.9662 43.2468 36.2127C43.0819 36.4591 42.8478 36.6511 42.5738 36.7646C42.2999 36.878 41.9985 36.9077 41.7077 36.8499C41.4169 36.7922 41.1498 36.6495 40.94 36.44L31.5 27M9 37.5H27C28.1935 37.5 29.3381 37.0259 30.182 36.182C31.0259 35.3381 31.5 34.1935 31.5 33V15C31.5 13.8065 31.0259 12.6619 30.182 11.818C29.3381 10.9741 28.1935 10.5 27 10.5H9C7.80653 10.5 6.66193 10.9741 5.81802 11.818C4.97411 12.6619 4.5 13.8065 4.5 15V33C4.5 34.1935 4.97411 35.3381 5.81802 36.182C6.66193 37.0259 7.80653 37.5 9 37.5Z" fill="url(#paint0_linear_83_10)"/>
<path d="M31.5 21L40.94 11.56C41.1498 11.3505 41.4169 11.2078 41.7077 11.1501C41.9985 11.0923 42.2999 11.122 42.5738 11.2354C42.8478 11.3488 43.0819 11.5409 43.2468 11.7873C43.4116 12.0338 43.4997 12.3235 43.5 12.62V35.38C43.4997 35.6765 43.4116 35.9662 43.2468 36.2127C43.0819 36.4591 42.8478 36.6511 42.5738 36.7646C42.2999 36.878 41.9985 36.9077 41.7077 36.8499C41.4169 36.7922 41.1498 36.6495 40.94 36.44L31.5 27M9 37.5H27C28.1935 37.5 29.3381 37.0259 30.182 36.182C31.0259 35.3381 31.5 34.1935 31.5 33V15C31.5 13.8065 31.0259 12.6619 30.182 11.818C29.3381 10.9741 28.1935 10.5 27 10.5H9C7.80653 10.5 6.66193 10.9741 5.81802 11.818C4.97411 12.6619 4.5 13.8065 4.5 15V33C4.5 34.1935 4.97411 35.3381 5.81802 36.182C6.66193 37.0259 7.80653 37.5 9 37.5Z" stroke="url(#paint1_linear_83_10)" stroke-width="1.5" stroke-linecap="round" stroke-linejoin="round"/>
<defs>
<linearGradient id="paint0_linear_83_10" x1="24" y1="10.5" x2="24" y2="37.5" gradientUnits="userSpaceOnUse">
<stop stop-color="#60A5FA"/>
<stop offset="1" stop-color="#3B82F6"/>
</linearGradient>
<linearGradient id="paint1_linear_83_10" x1="24" y1="10.5" x2="24" y2="37.5" gradientUnits="userSpaceOnUse">
<stop stop-color="#60A5FA"/>
<stop offset="1" stop-color="#3B82F6"/>
</linearGradient>
</defs>
</svg>
